<svg width="136" height="56" viewBox="0 0 136 56" fill="none" xmlns="http://www.w3.org/2000/svg">
<g filter="url(#filter0_d_39_48)">
<rect x="4" width="128" height="48" rx="15" fill="#FEF4F4"/>
<g clip-path="url(#clip0_39_48)">
<path d="M32.5117 27.6616C35.3499 26.101 37.5017 24.912 37.6871 24.8196C38.2802 24.5036 38.893 23.6674 37.6871 23.018C37.2978 22.8138 35.2014 21.6616 32.5117 20.176L28.7833 23.9465L32.5115 27.6616H32.5117Z" fill="#FFD900"/>
<path d="M28.7833 23.9465L16.9111 35.928C17.1896 35.965 17.5042 35.891 17.8753 35.6868C18.6541 35.2601 26.9091 30.7457 32.5119 27.6625L28.7833 23.9465Z" fill="#F43249"/>
<path d="M28.7833 23.9465L32.5115 20.1943C32.5115 20.1943 18.7104 12.6524 17.8752 12.2074C17.5609 12.0203 17.2083 11.965 16.8929 12.0203L28.7833 23.9463V23.9465Z" fill="#00EE76"/>
<path d="M28.7833 23.9465L16.8927 12.0205C16.4101 12.1322 16.0022 12.5591 16.0022 13.4318V34.516C16.0022 35.3154 16.3178 35.8909 16.9109 35.9463L28.7831 23.9463L28.7833 23.9465Z" fill="#00D3FF"/>
<path d="M67.4989 24.346C65.3658 24.346 63.6033 25.999 63.6033 28.2654C63.6033 30.5132 65.3473 32.1847 67.4991 32.1847C69.6507 32.1847 71.3945 30.5317 71.3945 28.2654C71.3945 25.999 69.6507 24.346 67.4989 24.346ZM67.4989 30.6251C66.33 30.6251 65.3103 29.6403 65.3103 28.2479C65.3103 26.8361 66.3308 25.8706 67.4989 25.8706C68.667 25.8706 69.6875 26.8361 69.6875 28.2479C69.6875 29.6403 68.667 30.6251 67.4989 30.6251ZM59.0214 24.346C56.8696 24.346 55.1257 25.999 55.1257 28.2654C55.1257 30.5132 56.8696 32.1847 59.0214 32.1847C61.1731 32.1847 62.917 30.5317 62.917 28.2654C62.917 25.999 61.1731 24.346 59.0212 24.346H59.0214ZM59.0214 30.6251C57.8523 30.6251 56.8329 29.6403 56.8329 28.2479C56.8329 26.8361 57.8533 25.8706 59.0214 25.8706C60.1904 25.8706 61.21 26.8361 61.21 28.2479C61.21 29.6403 60.2078 30.6251 59.0214 30.6251ZM48.9485 25.5536V27.2065H52.8808C52.7691 28.1352 52.4547 28.8224 51.9906 29.2872C51.4158 29.8628 50.5253 30.4947 48.9485 30.4947C46.518 30.4947 44.6451 28.5259 44.6451 26.0923C44.6451 23.6588 46.519 21.6527 48.9485 21.6527C50.2651 21.6527 51.2118 22.173 51.9166 22.842L53.0848 21.6713C52.1013 20.7243 50.7847 20 48.9485 20C45.6275 20 42.8448 22.7301 42.8448 26.0553C42.8448 29.3807 45.6275 32.1108 48.9485 32.1108C50.7477 32.1108 52.0838 31.5167 53.1595 30.4016C54.2539 29.3057 54.5878 27.7636 54.5878 26.5193C54.5878 26.1294 54.5511 25.7763 54.4948 25.4789L48.9485 25.5536ZM90.1675 26.8351C89.8519 25.962 88.8507 24.346 86.8466 24.346C84.8426 24.346 83.1919 25.9252 83.1919 28.2654C83.1919 30.4569 84.8426 32.1847 87.0322 32.1847C88.8129 32.1847 89.8334 31.0888 90.2597 30.4569L88.9431 29.5654C88.4975 30.2159 87.9042 30.6426 87.0322 30.6426C86.1602 30.6426 85.5485 30.2527 85.1583 29.4536L90.3337 27.2805L90.1675 26.8351ZM84.8989 28.1545C84.8621 26.6494 86.068 25.8696 86.9205 25.8696C87.607 25.8696 88.1636 26.204 88.3673 26.7058L84.8989 28.1545ZM80.6879 31.9249H82.3949V20.4452H80.6879V31.9249ZM77.906 25.2192H77.8505C77.4612 24.7544 76.7379 24.346 75.8096 24.346C73.8617 24.346 72.0995 26.0738 72.0995 28.2654C72.0995 30.4569 73.8802 32.1664 75.8096 32.1664C76.7369 32.1664 77.4604 31.7578 77.8505 31.2745H77.906V31.8318C77.906 33.3369 77.1077 34.135 75.8281 34.135C74.7892 34.135 74.1396 33.3737 73.8802 32.7418L72.3967 33.3737C72.8228 34.414 73.955 35.6956 75.8281 35.6956C77.8312 35.6956 79.5197 34.5066 79.5197 31.6276V24.5873H77.906V25.2192ZM75.9581 30.6251C74.7892 30.6251 73.8065 29.6403 73.8065 28.2664C73.8065 26.8925 74.79 25.8889 75.9581 25.8889C77.1088 25.8889 78.036 26.8925 78.036 28.2664C78.0352 29.6218 77.1077 30.6251 75.9581 30.6251ZM98.1256 20.4454H94.0446V31.9249H95.7516V27.5779H98.1256C100.018 27.5779 101.873 26.203 101.873 24.0117C101.873 21.8201 100.018 20.4452 98.1256 20.4452V20.4454ZM98.1809 25.9815H95.7691V22.0426H98.1809C99.4422 22.0426 100.184 23.1015 100.184 24.0115C100.167 24.9031 99.4432 25.9815 98.1809 25.9815ZM108.681 24.3275C107.457 24.3275 106.177 24.8663 105.657 26.0923L107.16 26.7243C107.495 26.0923 108.088 25.8881 108.719 25.8881C109.609 25.8881 110.5 26.4267 110.518 27.3737V27.4856C110.203 27.2999 109.554 27.0393 108.737 27.0393C107.105 27.0393 105.453 27.9495 105.453 29.6218C105.453 31.1637 106.79 32.1479 108.273 32.1479C109.424 32.1479 110.054 31.6276 110.443 31.015H110.499V31.9066H112.149V27.5039C112.131 25.4795 110.629 24.3273 108.681 24.3273V24.3275ZM108.477 30.6066C107.921 30.6066 107.141 30.3275 107.141 29.6411C107.141 28.7494 108.105 28.4151 108.94 28.4151C109.682 28.4151 110.035 28.5822 110.499 28.8049C110.369 29.8638 109.46 30.6066 108.477 30.6066ZM118.105 24.5883L116.157 29.5477H116.101L114.08 24.5881H112.244L115.286 31.535L113.56 35.4176H115.341L119.997 24.5881H118.104L118.105 24.5883ZM102.819 31.9249H104.526V20.4452H102.819V31.9249Z" fill="#1A1C22"/>
<path d="M47.448 15.112H48.632V17.384C48.328 17.6133 47.976 17.7893 47.576 17.912C47.176 18.0347 46.7733 18.096 46.368 18.096C45.7867 18.096 45.264 17.9733 44.8 17.728C44.336 17.4773 43.9707 17.1333 43.704 16.696C43.4427 16.2533 43.312 15.7547 43.312 15.2C43.312 14.6453 43.4427 14.1493 43.704 13.712C43.9707 13.2693 44.3387 12.9253 44.808 12.68C45.2773 12.4293 45.8053 12.304 46.392 12.304C46.8827 12.304 47.328 12.3867 47.728 12.552C48.128 12.7173 48.464 12.9573 48.736 13.272L47.904 14.04C47.504 13.6187 47.0213 13.408 46.456 13.408C46.0987 13.408 45.7813 13.4827 45.504 13.632C45.2267 13.7813 45.0107 13.992 44.856 14.264C44.7013 14.536 44.624 14.848 44.624 15.2C44.624 15.5467 44.7013 15.856 44.856 16.128C45.0107 16.4 45.224 16.6133 45.496 16.768C45.7733 16.9173 46.088 16.992 46.44 16.992C46.8133 16.992 47.1493 16.912 47.448 16.752V15.112ZM54.0519 16.96V18H49.7159V12.4H53.9479V13.44H51.0039V14.656H53.6039V15.664H51.0039V16.96H54.0519ZM56.1231 13.456H54.3311V12.4H59.2111V13.456H57.4191V18H56.1231V13.456ZM61.934 12.4H63.23V18H61.934V12.4ZM65.599 13.456H63.807V12.4H68.687V13.456H66.895V18H65.599V13.456ZM74.1219 18.096C73.5406 18.096 73.0153 17.9707 72.5459 17.72C72.0819 17.4693 71.7166 17.1253 71.4499 16.688C71.1886 16.2453 71.0579 15.7493 71.0579 15.2C71.0579 14.6507 71.1886 14.1573 71.4499 13.72C71.7166 13.2773 72.0819 12.9307 72.5459 12.68C73.0153 12.4293 73.5406 12.304 74.1219 12.304C74.7033 12.304 75.2259 12.4293 75.6899 12.68C76.1539 12.9307 76.5193 13.2773 76.7859 13.72C77.0526 14.1573 77.1859 14.6507 77.1859 15.2C77.1859 15.7493 77.0526 16.2453 76.7859 16.688C76.5193 17.1253 76.1539 17.4693 75.6899 17.72C75.2259 17.9707 74.7033 18.096 74.1219 18.096ZM74.1219 16.992C74.4526 16.992 74.7513 16.9173 75.0179 16.768C75.2846 16.6133 75.4926 16.4 75.6419 16.128C75.7966 15.856 75.8739 15.5467 75.8739 15.2C75.8739 14.8533 75.7966 14.544 75.6419 14.272C75.4926 14 75.2846 13.7893 75.0179 13.64C74.7513 13.4853 74.4526 13.408 74.1219 13.408C73.7913 13.408 73.4926 13.4853 73.2259 13.64C72.9593 13.7893 72.7486 14 72.5939 14.272C72.4446 14.544 72.3699 14.8533 72.3699 15.2C72.3699 15.5467 72.4446 15.856 72.5939 16.128C72.7486 16.4 72.9593 16.6133 73.2259 16.768C73.4926 16.9173 73.7913 16.992 74.1219 16.992ZM83.1759 12.4V18H82.1119L79.3199 14.6V18H78.0399V12.4H79.1119L81.8959 15.8V12.4H83.1759Z" fill="#1A1C22"/>
</g>
</g>
<defs>
<filter id="filter0_d_39_48" x="0" y="0" width="136" height="56" filterUnits="userSpaceOnUse" color-interpolation-filters="sRGB">
<feFlood flood-opacity="0" result="BackgroundImageFix"/>
<feColorMatrix in="SourceAlpha" type="matrix" values="0 0 0 0 0 0 0 0 0 0 0 0 0 0 0 0 0 0 127 0" result="hardAlpha"/>
<feOffset dy="4"/>
<feGaussianBlur stdDeviation="2"/>
<feComposite in2="hardAlpha" operator="out"/>
<feColorMatrix type="matrix" values="0 0 0 0 0 0 0 0 0 0 0 0 0 0 0 0 0 0 0.25 0"/>
<feBlend mode="normal" in2="BackgroundImageFix" result="effect1_dropShadow_39_48"/>
<feBlend mode="normal" in="SourceGraphic" in2="effect1_dropShadow_39_48" result="shape"/>
</filter>
<clipPath id="clip0_39_48">
<rect width="104" height="24" fill="white" transform="translate(16 12)"/>
</clipPath>
</defs>
</svg>
